# xmcd
#
# Track frame offsets:
#	150
#	16267
#	37915
#	61117
#	77962
#	94237
#	114547
#	130807
#	148917
#	168995
#	189292
#
# Disc length: 2739 seconds
#
# Revision: 2
# Processed by: cddbd v1.5.2PL0 Copyright (c) Steve Scherf et al.
# Submitted via: EasyCDDAExtractor 15.1.0.1
#
DISCID=8b0ab10b
DTITLE=Blackhead - BASIC
DYEAR=1900
DGENRE=Salsa
TTITLE0=คุ้มมั้ย
TTITLE1=ยอมรับ
TTITLE2=ใจฉันอยู่กับเธอ
TTITLE3=กลืน
TTITLE4=เหล้าจ๋า
TTITLE5=ใครมาเอามันไปไหน
TTITLE6=รักคือ
TTITLE7=ลืม
TTITLE8=แล้วแต่เธอ
TTITLE9=เท่านั้น เหรอ
TTITLE10=รักคือ
EXTD=
EXTT0=
EXTT1=
EXTT2=
EXTT3=
EXTT4=
EXTT5=
EXTT6=
EXTT7=
EXTT8=
EXTT9=
EXTT10=
PLAYORDER=
